<svg width="66" height="66" viewBox="0 0 66 66" fill="none" xmlns="http://www.w3.org/2000/svg">
<path d="M19.9967 30.7582C20.3175 28.5939 21.1746 26.5443 22.49 24.796L12.815 15.1481C8.98807 19.5015 6.67718 24.9792 6.22949 30.7582H19.9967ZM25.3355 21.9504C27.0866 20.6448 29.136 19.7971 31.2977 19.4842V5.68994C25.5187 6.13763 20.041 8.44852 15.6877 12.2754L25.3355 21.9504ZM35.3628 5.68994V19.2403C37.595 19.6029 39.6955 20.5365 41.4605 21.9504L51.1084 12.3025C46.7223 8.43877 41.1924 6.1164 35.3628 5.68994ZM22.49 40.9209C21.1843 39.1699 20.3366 37.1205 20.0238 34.9588H6.22949C6.64669 40.7249 8.91895 46.2012 12.7066 50.5688L22.49 40.9209ZM31.2977 46.1243C29.1335 45.8035 27.0839 44.9464 25.3355 43.631L15.6877 53.306C20.041 57.1329 25.5187 59.4438 31.2977 59.8915V46.1243ZM44.1706 24.796C45.4762 26.547 46.3239 28.5964 46.6367 30.7582H60.1871C59.7699 24.992 57.4977 19.5158 53.7101 15.1481L44.1706 24.796ZM41.4605 43.631C39.7094 44.9367 37.6601 45.7844 35.4983 46.0972V59.6476C41.2645 59.2304 46.7407 56.9581 51.1084 53.1705L41.4605 43.631ZM46.6638 34.8233C46.365 37.0348 45.5069 39.1336 44.1706 40.9209L53.8185 50.5688C57.6822 46.1828 60.0046 40.6529 60.431 34.8233H46.6638Z" fill="url(#paint0_angular_18_1525)"/>
<defs>
<radialGradient id="paint0_angular_18_1525" cx="0" cy="0" r="1" gradientUnits="userSpaceOnUse" gradientTransform="translate(33.3303 32.7907) rotate(5.64055) scale(34.8291 29.882)">
<stop stop-color="#FF0000"/>
<stop offset="0.145833" stop-color="#FFB800"/>
<stop offset="0.296875" stop-color="#FFE600"/>
<stop offset="0.447917" stop-color="#52FF00"/>
<stop offset="0.598958" stop-color="#00FFF0"/>
<stop offset="0.734375" stop-color="#2400FF"/>
<stop offset="0.864583" stop-color="#BD00FF"/>
<stop offset="1" stop-color="#FF00A8"/>
</radialGradient>
</defs>
</svg>
