<svg width="178" height="31" viewBox="0 0 178 31" fill="none" xmlns="http://www.w3.org/2000/svg">
<g clip-path="url(#clip0_18_1562)">
<path d="M27.5269 11.5126C27.4481 11.2804 27.303 11.0763 27.1095 10.9257C26.916 10.775 26.6827 10.6843 26.4382 10.6647L19.2878 10.0965L16.1937 3.24716C16.0951 3.02656 15.9348 2.83919 15.7322 2.70766C15.5295 2.57614 15.2931 2.50608 15.0515 2.50595C14.8098 2.50582 14.5733 2.57561 14.3705 2.70692C14.1677 2.83822 14.0072 3.02541 13.9084 3.24591L10.8142 10.0965L3.66385 10.6647C3.42361 10.6837 3.19394 10.7716 3.00231 10.9177C2.81068 11.0639 2.66522 11.2621 2.58332 11.4888C2.50142 11.7154 2.48655 11.9609 2.54049 12.1958C2.59443 12.4306 2.7149 12.645 2.88748 12.8132L8.17157 17.9644L6.30276 26.0567C6.24601 26.3016 6.2642 26.558 6.35496 26.7925C6.44572 27.0269 6.60486 27.2287 6.81173 27.3717C7.0186 27.5146 7.26365 27.592 7.51508 27.5939C7.76651 27.5958 8.01271 27.5222 8.22174 27.3824L15.051 22.8295L21.8804 27.3824C22.094 27.5242 22.3459 27.5973 22.6023 27.5916C22.8587 27.586 23.1072 27.502 23.3144 27.3509C23.5217 27.1999 23.6776 26.989 23.7614 26.7466C23.8452 26.5042 23.8527 26.242 23.783 25.9952L21.489 17.9681L27.1782 12.8483C27.5507 12.5122 27.6875 11.9879 27.5269 11.5126Z" fill="#F3CD03"/>
<path d="M64.4673 11.5126C64.3885 11.2804 64.2434 11.0763 64.0499 10.9257C63.8565 10.775 63.6231 10.6843 63.3787 10.6647L56.2283 10.0965L53.1341 3.24716C53.0355 3.02656 52.8753 2.83919 52.6726 2.70766C52.4699 2.57614 52.2335 2.50608 51.9919 2.50595C51.7503 2.50582 51.5138 2.57561 51.311 2.70692C51.1081 2.83822 50.9476 3.02541 50.8489 3.24591L47.7547 10.0965L40.6043 10.6647C40.364 10.6837 40.1344 10.7716 39.9427 10.9177C39.7511 11.0639 39.6056 11.2621 39.5237 11.4888C39.4418 11.7154 39.427 11.9609 39.4809 12.1958C39.5349 12.4306 39.6553 12.645 39.8279 12.8132L45.112 17.9644L43.2432 26.0567C43.1864 26.3016 43.2046 26.558 43.2954 26.7925C43.3861 27.0269 43.5453 27.2287 43.7522 27.3717C43.959 27.5146 44.2041 27.592 44.4555 27.5939C44.7069 27.5958 44.9531 27.5222 45.1622 27.3824L51.9915 22.8295L58.8208 27.3824C59.0344 27.5242 59.2864 27.5973 59.5428 27.5916C59.7991 27.586 60.0476 27.502 60.2549 27.3509C60.4621 27.1999 60.6181 26.989 60.7018 26.7466C60.7856 26.5042 60.7932 26.242 60.7235 25.9952L58.4295 17.9681L64.1187 12.8483C64.4912 12.5122 64.6279 11.9879 64.4673 11.5126Z" fill="#F3CD03"/>
<path d="M101.403 11.5126C101.324 11.2804 101.179 11.0763 100.985 10.9257C100.792 10.775 100.558 10.6843 100.314 10.6647L93.1635 10.0965L90.0693 3.24716C89.9707 3.02656 89.8104 2.83919 89.6078 2.70766C89.4051 2.57614 89.1687 2.50608 88.9271 2.50595C88.6854 2.50582 88.449 2.57561 88.2461 2.70692C88.0433 2.83822 87.8828 3.02541 87.784 3.24591L84.6898 10.0965L77.5395 10.6647C77.2992 10.6837 77.0695 10.7716 76.8779 10.9177C76.6863 11.0639 76.5408 11.2621 76.4589 11.4888C76.377 11.7154 76.3622 11.9609 76.4161 12.1958C76.47 12.4306 76.5905 12.645 76.7631 12.8132L82.0472 17.9644L80.1784 26.0567C80.1216 26.3016 80.1398 26.558 80.2306 26.7925C80.3213 27.0269 80.4805 27.2287 80.6873 27.3717C80.8942 27.5146 81.1393 27.592 81.3907 27.5939C81.6421 27.5958 81.8883 27.5222 82.0973 27.3824L88.9267 22.8295L95.756 27.3824C95.9696 27.5242 96.2216 27.5973 96.4779 27.5916C96.7343 27.586 96.9828 27.502 97.19 27.3509C97.3973 27.1999 97.5532 26.989 97.637 26.7466C97.7208 26.5042 97.7283 26.242 97.6586 25.9952L95.3646 17.9681L101.054 12.8483C101.426 12.5122 101.563 11.9879 101.403 11.5126Z" fill="#F3CD03"/>
<path d="M138.342 11.5126C138.263 11.2804 138.118 11.0763 137.924 10.9257C137.731 10.775 137.497 10.6843 137.253 10.6647L130.103 10.0965L127.008 3.24716C126.91 3.02656 126.75 2.83919 126.547 2.70766C126.344 2.57614 126.108 2.50608 125.866 2.50595C125.625 2.50582 125.388 2.57561 125.185 2.70692C124.982 2.83822 124.822 3.02541 124.723 3.24591L121.629 10.0965L114.479 10.6647C114.238 10.6837 114.009 10.7716 113.817 10.9177C113.625 11.0639 113.48 11.2621 113.398 11.4888C113.316 11.7154 113.301 11.9609 113.355 12.1958C113.409 12.4306 113.53 12.645 113.702 12.8132L118.986 17.9644L117.117 26.0567C117.061 26.3016 117.079 26.558 117.17 26.7925C117.26 27.0269 117.42 27.2287 117.626 27.3717C117.833 27.5146 118.078 27.592 118.33 27.5939C118.581 27.5958 118.827 27.5222 119.036 27.3824L125.866 22.8295L132.695 27.3824C132.909 27.5242 133.161 27.5973 133.417 27.5916C133.673 27.586 133.922 27.502 134.129 27.3509C134.336 27.1999 134.492 26.989 134.576 26.7466C134.66 26.5042 134.667 26.242 134.598 25.9952L132.304 17.9681L137.993 12.8483C138.365 12.5122 138.502 11.9879 138.342 11.5126Z" fill="#F3CD03"/>
<rect width="30.1016" height="30.1016" transform="translate(147.755)" fill="white"/>
<path d="M175.018 12.0066C174.939 11.7744 174.794 11.5704 174.601 11.4197C174.407 11.269 174.174 11.1783 173.93 11.1588L166.779 10.5906L163.685 3.74121C163.586 3.52061 163.426 3.33324 163.223 3.20171C163.021 3.07019 162.784 3.00013 162.543 3C162.301 2.99987 162.065 3.06966 161.862 3.20097C161.659 3.33227 161.499 3.51946 161.4 3.73996L158.306 10.5906L151.155 11.1588C150.915 11.1778 150.685 11.2656 150.494 11.4118C150.302 11.5579 150.157 11.7562 150.075 11.9828C149.993 12.2095 149.978 12.4549 150.032 12.6898C150.086 12.9247 150.206 13.1391 150.379 13.3073L155.663 18.4584L153.794 26.5507C153.737 26.7957 153.756 27.052 153.846 27.2865C153.937 27.521 154.096 27.7228 154.303 27.8657C154.51 28.0086 154.755 28.0861 155.006 28.088C155.258 28.0899 155.504 28.0162 155.713 27.8764L162.542 23.3236L169.372 27.8764C169.585 28.0183 169.837 28.0913 170.094 28.0857C170.35 28.0801 170.599 27.9961 170.806 27.845C171.013 27.6939 171.169 27.483 171.253 27.2406C171.337 26.9983 171.344 26.7361 171.274 26.4893L168.98 18.4622L174.67 13.3424C175.042 13.0062 175.179 12.482 175.018 12.0066Z" fill="#F3CD03"/>
</g>
<defs>
<clipPath id="clip0_18_1562">
<rect width="177.856" height="30.1016" fill="white"/>
</clipPath>
</defs>
</svg>
